<svg width="990" height="1337" viewBox="0 0 990 1337" fill="none" xmlns="http://www.w3.org/2000/svg">
<circle cx="494.999" cy="342.132" r="283.897" fill="#FDB833"/>
<path d="M494.999 930.206L249.137 489.151L740.861 489.151L494.999 930.206Z" fill="#FDB833"/>
<rect x="378.399" y="585.473" width="233.201" height="344.732" rx="116.601" fill="#FDB833"/>
<rect x="385.06" y="428.316" width="30.4175" height="81.1134" rx="15.2088" transform="rotate(45 385.06 428.316)" fill="white"/>
<rect x="445.623" y="460.508" width="30.4175" height="81.1134" rx="15.2088" transform="rotate(18.5125 445.623 460.508)" fill="white"/>
<rect width="30.4175" height="81.1134" rx="15.2088" transform="matrix(-0.707107 0.707107 0.707107 0.707107 604.686 428.316)" fill="white"/>
<rect width="30.4175" height="81.1134" rx="15.2088" transform="matrix(-0.948254 0.317512 0.317512 0.948254 544.122 460.507)" fill="white"/>
<rect x="604.687" y="247.975" width="30.4175" height="81.1134" rx="15.2088" transform="rotate(-135 604.687 247.975)" fill="white"/>
<rect x="544.122" y="215.784" width="30.4175" height="81.1134" rx="15.2088" transform="rotate(-161.487 544.122 215.784)" fill="white"/>
<rect width="30.4175" height="81.1134" rx="15.2088" transform="matrix(0.707107 -0.707107 -0.707107 -0.707107 385.06 247.976)" fill="white"/>
<rect width="30.4175" height="81.1134" rx="15.2088" transform="matrix(0.948254 -0.317512 -0.317512 -0.948254 445.623 215.784)" fill="white"/>
<path d="M331.213 735.221C331.213 723.16 340.991 713.383 353.052 713.383H622.39C634.451 713.383 644.228 723.16 644.228 735.221C644.228 747.282 634.451 757.059 622.39 757.059H353.052C340.991 757.059 331.213 747.282 331.213 735.221Z" fill="white"/>
<path d="M638.611 348.333C665.26 402.654 543.885 399.648 485.665 399.648C427.445 399.648 320.833 402.654 354.444 348.333C388.055 294.013 433.301 277.426 491.521 277.426C549.741 277.426 611.961 294.013 638.611 348.333Z" fill="white"/>
<path d="M550 330C550 360.376 515.629 385 496.571 385C477.513 385 440 366.667 440 330C440 293.333 458.927 275 496.571 275C534.215 275 550 299.624 550 330Z" fill="black"/>
<path d="M59.4364 1198.32C49.7811 1198.32 41.129 1196.75 33.48 1193.61C25.831 1190.48 19.6867 1185.84 15.0472 1179.7C10.533 1173.55 8.15056 1166.15 7.89978 1157.5H42.1321C42.6337 1162.39 44.3265 1166.15 47.2106 1168.79C50.0946 1171.29 53.8564 1172.55 58.496 1172.55C63.2609 1172.55 67.0227 1171.48 69.7814 1169.35C72.54 1167.09 73.9193 1164.02 73.9193 1160.13C73.9193 1156.87 72.7908 1154.18 70.5337 1152.05C68.402 1149.91 65.7061 1148.16 62.4459 1146.78C59.311 1145.4 54.7969 1143.83 48.9034 1142.08C40.3766 1139.44 33.4173 1136.81 28.0254 1134.18C22.6335 1131.54 17.9939 1127.66 14.1067 1122.52C10.2196 1117.38 8.27596 1110.67 8.27596 1102.39C8.27596 1090.1 12.7274 1080.51 21.6303 1073.61C30.5333 1066.59 42.1321 1063.08 56.427 1063.08C70.9726 1063.08 82.6969 1066.59 91.5998 1073.61C100.503 1080.51 105.268 1090.16 105.895 1102.58H71.098C70.8472 1098.32 69.2798 1094.99 66.3957 1092.61C63.5117 1090.1 59.8126 1088.85 55.2984 1088.85C51.4112 1088.85 48.2764 1089.91 45.8939 1092.05C43.5115 1094.05 42.3202 1097 42.3202 1100.89C42.3202 1105.15 44.3265 1108.47 48.3391 1110.85C52.3517 1113.24 58.6214 1115.81 67.1481 1118.57C75.6748 1121.45 82.5715 1124.21 87.838 1126.84C93.2299 1129.48 97.8695 1133.3 101.757 1138.32C105.644 1143.33 107.587 1149.79 107.587 1157.69C107.587 1165.21 105.644 1172.05 101.757 1178.19C97.9948 1184.34 92.4775 1189.23 85.2047 1192.86C77.9319 1196.5 69.3425 1198.32 59.4364 1198.32ZM185.877 1169.73V1197H169.513C157.852 1197 148.761 1194.18 142.24 1188.54C135.72 1182.77 132.459 1173.43 132.459 1160.51V1118.75H119.669V1092.05H132.459V1066.47H164.623V1092.05H185.689V1118.75H164.623V1160.89C164.623 1164.02 165.375 1166.28 166.88 1167.66C168.385 1169.04 170.892 1169.73 174.403 1169.73H185.877ZM197.397 1144.33C197.397 1133.55 199.404 1124.08 203.416 1115.93C207.554 1107.78 213.134 1101.51 220.156 1097.12C227.178 1092.74 235.015 1090.54 243.668 1090.54C251.066 1090.54 257.523 1092.05 263.041 1095.06C268.683 1098.06 273.01 1102.01 276.019 1106.9V1092.05H308.182V1197H276.019V1182.14C272.884 1187.03 268.495 1190.98 262.853 1193.99C257.335 1197 250.878 1198.5 243.479 1198.5C234.953 1198.5 227.178 1196.31 220.156 1191.92C213.134 1187.41 207.554 1181.08 203.416 1172.92C199.404 1164.65 197.397 1155.12 197.397 1144.33ZM276.019 1144.52C276.019 1136.5 273.762 1130.17 269.248 1125.53C264.859 1120.89 259.467 1118.57 253.072 1118.57C246.677 1118.57 241.222 1120.89 236.708 1125.53C232.319 1130.04 230.125 1136.31 230.125 1144.33C230.125 1152.36 232.319 1158.76 236.708 1163.52C241.222 1168.16 246.677 1170.48 253.072 1170.48C259.467 1170.48 264.859 1168.16 269.248 1163.52C273.762 1158.88 276.019 1152.55 276.019 1144.52ZM363.615 1109.54C367.376 1103.77 372.079 1099.26 377.721 1096C383.364 1092.61 389.634 1090.92 396.53 1090.92V1124.96H387.69C379.665 1124.96 373.646 1126.72 369.633 1130.23C365.621 1133.61 363.615 1139.63 363.615 1148.28V1197H331.451V1092.05H363.615V1109.54ZM510.839 1142.83C510.839 1145.84 510.651 1148.97 510.275 1152.23H437.484C437.985 1158.76 440.054 1163.77 443.691 1167.28C447.453 1170.67 452.03 1172.36 457.421 1172.36C465.447 1172.36 471.027 1168.97 474.161 1162.2H508.394C506.638 1169.1 503.441 1175.31 498.801 1180.82C494.287 1186.34 488.582 1190.67 481.685 1193.8C474.788 1196.94 467.077 1198.5 458.55 1198.5C448.268 1198.5 439.114 1196.31 431.089 1191.92C423.064 1187.53 416.794 1181.26 412.28 1173.11C407.766 1164.96 405.509 1155.43 405.509 1144.52C405.509 1133.61 407.703 1124.08 412.092 1115.93C416.606 1107.78 422.876 1101.51 430.901 1097.12C438.926 1092.74 448.142 1090.54 458.55 1090.54C468.707 1090.54 477.735 1092.67 485.635 1096.94C493.535 1101.2 499.679 1107.28 504.068 1115.18C508.582 1123.08 510.839 1132.3 510.839 1142.83ZM477.923 1134.37C477.923 1128.85 476.042 1124.46 472.281 1121.2C468.519 1117.94 463.816 1116.31 458.174 1116.31C452.782 1116.31 448.205 1117.88 444.443 1121.01C440.807 1124.15 438.55 1128.6 437.672 1134.37H477.923ZM577.274 1064.96C591.193 1064.96 603.356 1067.72 613.764 1073.24C624.171 1078.75 632.197 1086.53 637.839 1096.56C643.607 1106.47 646.491 1117.94 646.491 1130.98C646.491 1143.9 643.607 1155.37 637.839 1165.4C632.197 1175.43 624.109 1183.21 613.576 1188.72C603.168 1194.24 591.068 1197 577.274 1197H527.807V1064.96H577.274ZM575.205 1169.16C587.369 1169.16 596.836 1165.84 603.607 1159.19C610.378 1152.55 613.764 1143.14 613.764 1130.98C613.764 1118.82 610.378 1109.35 603.607 1102.58C596.836 1095.81 587.369 1092.42 575.205 1092.42H559.97V1169.16H575.205ZM763.401 1142.83C763.401 1145.84 763.213 1148.97 762.837 1152.23H690.046C690.548 1158.76 692.617 1163.77 696.253 1167.28C700.015 1170.67 704.592 1172.36 709.984 1172.36C718.009 1172.36 723.589 1168.97 726.724 1162.2H760.956C759.2 1169.1 756.003 1175.31 751.363 1180.82C746.849 1186.34 741.144 1190.67 734.247 1193.8C727.351 1196.94 719.639 1198.5 711.112 1198.5C700.83 1198.5 691.676 1196.31 683.651 1191.92C675.626 1187.53 669.356 1181.26 664.842 1173.11C660.328 1164.96 658.071 1155.43 658.071 1144.52C658.071 1133.61 660.265 1124.08 664.654 1115.93C669.168 1107.78 675.438 1101.51 683.463 1097.12C691.488 1092.74 700.704 1090.54 711.112 1090.54C721.269 1090.54 730.297 1092.67 738.197 1096.94C746.097 1101.2 752.241 1107.28 756.63 1115.18C761.144 1123.08 763.401 1132.3 763.401 1142.83ZM730.485 1134.37C730.485 1128.85 728.604 1124.46 724.843 1121.2C721.081 1117.94 716.379 1116.31 710.736 1116.31C705.344 1116.31 700.767 1117.88 697.005 1121.01C693.369 1124.15 691.112 1128.6 690.234 1134.37H730.485ZM823.065 1198.5C813.912 1198.5 805.761 1196.94 798.614 1193.8C791.466 1190.67 785.823 1186.4 781.685 1181.01C777.548 1175.5 775.228 1169.35 774.726 1162.58H806.513C806.89 1166.22 808.582 1169.16 811.592 1171.42C814.601 1173.68 818.3 1174.81 822.689 1174.81C826.702 1174.81 829.774 1174.05 831.905 1172.55C834.163 1170.92 835.291 1168.85 835.291 1166.34C835.291 1163.33 833.724 1161.14 830.589 1159.76C827.454 1158.25 822.376 1156.62 815.354 1154.87C807.83 1153.11 801.56 1151.29 796.545 1149.41C791.529 1147.41 787.203 1144.33 783.566 1140.2C779.93 1135.93 778.112 1130.23 778.112 1123.08C778.112 1117.06 779.742 1111.61 783.002 1106.72C786.388 1101.7 791.278 1097.75 797.673 1094.87C804.194 1091.98 811.905 1090.54 820.808 1090.54C833.974 1090.54 844.319 1093.8 851.843 1100.32C859.492 1106.84 863.881 1115.49 865.009 1126.28H835.291C834.79 1122.64 833.159 1119.76 830.401 1117.63C827.768 1115.49 824.256 1114.43 819.868 1114.43C816.106 1114.43 813.222 1115.18 811.216 1116.69C809.209 1118.06 808.206 1120.01 808.206 1122.52C808.206 1125.53 809.774 1127.78 812.908 1129.29C816.169 1130.79 821.184 1132.3 827.956 1133.8C835.73 1135.81 842.062 1137.81 846.953 1139.82C851.843 1141.7 856.106 1144.84 859.743 1149.23C863.505 1153.49 865.448 1159.26 865.574 1166.53C865.574 1172.67 863.818 1178.19 860.307 1183.08C856.921 1187.85 851.968 1191.61 845.448 1194.37C839.053 1197.13 831.592 1198.5 823.065 1198.5ZM949.39 1197L917.414 1152.99V1197H885.251V1057.81H917.414V1134.74L949.202 1092.05H988.889L945.252 1144.71L989.265 1197H949.39Z" fill="black"/>
<path d="M160.058 1302.61C155.81 1302.61 151.97 1301.88 148.537 1300.43C145.162 1298.97 142.485 1296.88 140.506 1294.14C138.528 1291.41 137.51 1288.18 137.451 1284.46H150.544C150.719 1286.96 151.591 1288.94 153.163 1290.39C154.792 1291.85 157.003 1292.57 159.796 1292.57C162.647 1292.57 164.888 1291.9 166.517 1290.57C168.146 1289.17 168.961 1287.37 168.961 1285.15C168.961 1283.35 168.408 1281.87 167.303 1280.7C166.197 1279.54 164.8 1278.64 163.113 1278C161.484 1277.3 159.214 1276.54 156.305 1275.73C152.348 1274.56 149.118 1273.43 146.616 1272.32C144.172 1271.16 142.048 1269.44 140.245 1267.17C138.499 1264.85 137.626 1261.76 137.626 1257.92C137.626 1254.31 138.528 1251.17 140.332 1248.49C142.136 1245.82 144.667 1243.78 147.926 1242.39C151.184 1240.93 154.908 1240.2 159.098 1240.2C165.382 1240.2 170.474 1241.74 174.373 1244.83C178.329 1247.85 180.512 1252.1 180.919 1257.57H167.477C167.361 1255.48 166.459 1253.76 164.771 1252.42C163.142 1251.03 160.96 1250.33 158.225 1250.33C155.839 1250.33 153.919 1250.94 152.464 1252.16C151.068 1253.38 150.37 1255.16 150.37 1257.49C150.37 1259.11 150.893 1260.48 151.941 1261.59C153.046 1262.63 154.385 1263.51 155.956 1264.21C157.585 1264.85 159.854 1265.6 162.764 1266.48C166.721 1267.64 169.95 1268.8 172.452 1269.97C174.954 1271.13 177.107 1272.88 178.911 1275.2C180.715 1277.53 181.617 1280.59 181.617 1284.37C181.617 1287.63 180.773 1290.65 179.086 1293.45C177.398 1296.24 174.925 1298.48 171.667 1300.17C168.408 1301.8 164.539 1302.61 160.058 1302.61ZM198.408 1247.88C196.255 1247.88 194.452 1247.21 192.997 1245.88C191.6 1244.48 190.902 1242.76 190.902 1240.73C190.902 1238.69 191.6 1237 192.997 1235.66C194.452 1234.27 196.255 1233.57 198.408 1233.57C200.561 1233.57 202.336 1234.27 203.733 1235.66C205.187 1237 205.915 1238.69 205.915 1240.73C205.915 1242.76 205.187 1244.48 203.733 1245.88C202.336 1247.21 200.561 1247.88 198.408 1247.88ZM204.431 1253.64V1302H192.211V1253.64H204.431ZM230.731 1263.68V1287.07C230.731 1288.7 231.11 1289.9 231.866 1290.65C232.681 1291.35 234.019 1291.7 235.881 1291.7H241.555V1302H233.874C223.574 1302 218.424 1297 218.424 1286.99V1263.68H212.664V1253.64H218.424V1241.69H230.731V1253.64H241.555V1263.68H230.731ZM263.698 1289.17L253.486 1313.7H245.63L251.304 1289.17H263.698ZM314.339 1302.61C310.091 1302.61 306.251 1301.88 302.818 1300.43C299.443 1298.97 296.766 1296.88 294.788 1294.14C292.809 1291.41 291.791 1288.18 291.733 1284.46H304.825C305 1286.96 305.873 1288.94 307.444 1290.39C309.073 1291.85 311.284 1292.57 314.077 1292.57C316.929 1292.57 319.169 1291.9 320.798 1290.57C322.428 1289.17 323.242 1287.37 323.242 1285.15C323.242 1283.35 322.689 1281.87 321.584 1280.7C320.478 1279.54 319.082 1278.64 317.394 1278C315.765 1277.3 313.496 1276.54 310.586 1275.73C306.629 1274.56 303.4 1273.43 300.898 1272.32C298.454 1271.16 296.33 1269.44 294.526 1267.17C292.78 1264.85 291.907 1261.76 291.907 1257.92C291.907 1254.31 292.809 1251.17 294.613 1248.49C296.417 1245.82 298.948 1243.78 302.207 1242.39C305.465 1240.93 309.189 1240.2 313.379 1240.2C319.664 1240.2 324.755 1241.74 328.654 1244.83C332.611 1247.85 334.793 1252.1 335.2 1257.57H321.758C321.642 1255.48 320.74 1253.76 319.053 1252.42C317.423 1251.03 315.241 1250.33 312.506 1250.33C310.121 1250.33 308.2 1250.94 306.746 1252.16C305.349 1253.38 304.651 1255.16 304.651 1257.49C304.651 1259.11 305.174 1260.48 306.222 1261.59C307.327 1262.63 308.666 1263.51 310.237 1264.21C311.866 1264.85 314.136 1265.6 317.045 1266.48C321.002 1267.64 324.231 1268.8 326.734 1269.97C329.236 1271.13 331.389 1272.88 333.193 1275.2C334.996 1277.53 335.898 1280.59 335.898 1284.37C335.898 1287.63 335.055 1290.65 333.367 1293.45C331.68 1296.24 329.207 1298.48 325.948 1300.17C322.689 1301.8 318.82 1302.61 314.339 1302.61ZM360.72 1263.68V1287.07C360.72 1288.7 361.098 1289.9 361.854 1290.65C362.669 1291.35 364.007 1291.7 365.87 1291.7H371.543V1302H363.862C353.562 1302 348.413 1297 348.413 1286.99V1263.68H342.652V1253.64H348.413V1241.69H360.72V1253.64H371.543V1263.68H360.72ZM377.19 1277.65C377.19 1272.76 378.15 1268.42 380.07 1264.64C382.049 1260.86 384.696 1257.95 388.013 1255.91C391.388 1253.88 395.141 1252.86 399.273 1252.86C402.88 1252.86 406.023 1253.59 408.699 1255.04C411.434 1256.5 413.616 1258.33 415.246 1260.54V1253.64H427.553V1302H415.246V1294.93C413.675 1297.2 411.492 1299.09 408.699 1300.6C405.964 1302.06 402.793 1302.79 399.185 1302.79C395.112 1302.79 391.388 1301.74 388.013 1299.64C384.696 1297.55 382.049 1294.61 380.07 1290.83C378.15 1286.99 377.19 1282.59 377.19 1277.65ZM415.246 1277.82C415.246 1274.85 414.664 1272.32 413.5 1270.23C412.336 1268.08 410.765 1266.45 408.787 1265.34C406.808 1264.18 404.684 1263.6 402.415 1263.6C400.146 1263.6 398.051 1264.15 396.13 1265.25C394.21 1266.36 392.639 1267.99 391.417 1270.14C390.253 1272.24 389.671 1274.74 389.671 1277.65C389.671 1280.56 390.253 1283.12 391.417 1285.33C392.639 1287.48 394.21 1289.14 396.13 1290.3C398.109 1291.47 400.204 1292.05 402.415 1292.05C404.684 1292.05 406.808 1291.5 408.787 1290.39C410.765 1289.23 412.336 1287.6 413.5 1285.5C414.664 1283.35 415.246 1280.79 415.246 1277.82ZM485.748 1253.64L455.809 1324.87H442.804L453.278 1300.78L433.901 1253.64H447.605L460.086 1287.42L472.743 1253.64H485.748ZM560.005 1302L553.371 1295.45C547.727 1300.52 540.831 1303.05 532.685 1303.05C528.204 1303.05 524.247 1302.29 520.814 1300.78C517.439 1299.21 514.821 1297.02 512.959 1294.23C511.097 1291.38 510.166 1288.09 510.166 1284.37C510.166 1280.35 511.3 1276.75 513.57 1273.55C515.839 1270.35 519.185 1267.76 523.607 1265.78C522.036 1263.86 520.901 1262.02 520.203 1260.28C519.505 1258.47 519.156 1256.55 519.156 1254.52C519.156 1251.72 519.883 1249.22 521.338 1247.01C522.793 1244.74 524.858 1242.97 527.535 1241.69C530.27 1240.41 533.441 1239.77 537.049 1239.77C540.715 1239.77 543.857 1240.46 546.476 1241.86C549.094 1243.26 551.044 1245.12 552.324 1247.45C553.604 1249.78 554.157 1252.36 553.982 1255.22H542.111C542.17 1253.3 541.704 1251.84 540.715 1250.85C539.726 1249.8 538.387 1249.28 536.7 1249.28C535.071 1249.28 533.703 1249.78 532.598 1250.76C531.55 1251.7 531.026 1252.92 531.026 1254.43C531.026 1255.88 531.463 1257.34 532.336 1258.79C533.209 1260.19 534.634 1261.94 536.613 1264.03L551.975 1279.22C552.091 1279.1 552.178 1278.99 552.236 1278.87C552.295 1278.75 552.353 1278.64 552.411 1278.52L557.386 1270.23H570.13L564.02 1280.96C562.856 1283.23 561.605 1285.39 560.267 1287.42L575.018 1302H560.005ZM533.034 1292.92C537.805 1292.92 542.024 1291.23 545.69 1287.86L530.677 1273.02C525.033 1275.52 522.211 1279.07 522.211 1283.67C522.211 1286.29 523.2 1288.5 525.178 1290.3C527.157 1292.05 529.775 1292.92 533.034 1292.92ZM639.486 1241.08V1250.94H614.086V1266.56H633.55V1276.25H614.086V1302H601.866V1241.08H639.486ZM669.622 1302.79C664.967 1302.79 660.778 1301.77 657.054 1299.73C653.329 1297.64 650.391 1294.7 648.238 1290.91C646.143 1287.13 645.096 1282.77 645.096 1277.82C645.096 1272.88 646.172 1268.51 648.325 1264.73C650.536 1260.95 653.533 1258.04 657.315 1256C661.098 1253.91 665.316 1252.86 669.972 1252.86C674.627 1252.86 678.845 1253.91 682.628 1256C686.41 1258.04 689.378 1260.95 691.531 1264.73C693.742 1268.51 694.848 1272.88 694.848 1277.82C694.848 1282.77 693.713 1287.13 691.443 1290.91C689.232 1294.7 686.206 1297.64 682.366 1299.73C678.584 1301.77 674.336 1302.79 669.622 1302.79ZM669.622 1292.14C671.834 1292.14 673.899 1291.61 675.82 1290.57C677.798 1289.46 679.369 1287.83 680.533 1285.68C681.697 1283.52 682.279 1280.91 682.279 1277.82C682.279 1273.23 681.057 1269.7 678.613 1267.26C676.227 1264.76 673.288 1263.51 669.797 1263.51C666.306 1263.51 663.367 1264.76 660.981 1267.26C658.654 1269.7 657.49 1273.23 657.49 1277.82C657.49 1282.42 658.625 1285.97 660.894 1288.47C663.222 1290.91 666.131 1292.14 669.622 1292.14ZM700.669 1277.82C700.669 1272.82 701.687 1268.45 703.724 1264.73C705.761 1260.95 708.583 1258.04 712.19 1256C715.798 1253.91 719.93 1252.86 724.585 1252.86C730.578 1252.86 735.524 1254.37 739.423 1257.4C743.38 1260.37 746.028 1264.56 747.366 1269.97H734.186C733.488 1267.87 732.295 1266.24 730.607 1265.08C728.978 1263.86 726.941 1263.25 724.497 1263.25C721.006 1263.25 718.242 1264.53 716.205 1267.09C714.169 1269.59 713.151 1273.17 713.151 1277.82C713.151 1282.42 714.169 1286 716.205 1288.56C718.242 1291.06 721.006 1292.31 724.497 1292.31C729.444 1292.31 732.673 1290.1 734.186 1285.68H747.366C746.028 1290.91 743.38 1295.08 739.423 1298.16C735.466 1301.24 730.52 1302.79 724.585 1302.79C719.93 1302.79 715.798 1301.77 712.19 1299.73C708.583 1297.64 705.761 1294.73 703.724 1291C701.687 1287.22 700.669 1282.83 700.669 1277.82ZM801.967 1253.64V1302H789.66V1295.89C788.089 1297.98 786.024 1299.64 783.463 1300.87C780.961 1302.03 778.226 1302.61 775.259 1302.61C771.476 1302.61 768.13 1301.83 765.221 1300.25C762.311 1298.63 760.013 1296.27 758.325 1293.18C756.696 1290.04 755.882 1286.32 755.882 1282.01V1253.64H768.101V1280.27C768.101 1284.11 769.061 1287.07 770.982 1289.17C772.902 1291.21 775.52 1292.22 778.837 1292.22C782.212 1292.22 784.86 1291.21 786.78 1289.17C788.7 1287.07 789.66 1284.11 789.66 1280.27V1253.64H801.967ZM832.528 1302.79C828.572 1302.79 825.022 1302.09 821.88 1300.69C818.738 1299.24 816.235 1297.29 814.373 1294.84C812.57 1292.4 811.58 1289.69 811.406 1286.73H823.713C823.946 1288.59 824.847 1290.13 826.419 1291.35C828.048 1292.57 830.055 1293.18 832.441 1293.18C834.769 1293.18 836.573 1292.72 837.853 1291.79C839.191 1290.86 839.86 1289.66 839.86 1288.21C839.86 1286.64 839.046 1285.47 837.416 1284.72C835.845 1283.9 833.314 1283.03 829.823 1282.1C826.215 1281.23 823.247 1280.32 820.92 1279.39C818.65 1278.46 816.672 1277.04 814.984 1275.12C813.355 1273.2 812.54 1270.61 812.54 1267.35C812.54 1264.67 813.297 1262.23 814.81 1260.02C816.381 1257.81 818.592 1256.06 821.443 1254.78C824.353 1253.5 827.757 1252.86 831.656 1252.86C837.416 1252.86 842.013 1254.31 845.446 1257.22C848.88 1260.07 850.771 1263.94 851.12 1268.83H839.424C839.249 1266.91 838.435 1265.4 836.98 1264.29C835.583 1263.13 833.692 1262.55 831.306 1262.55C829.095 1262.55 827.379 1262.95 826.157 1263.77C824.993 1264.58 824.411 1265.72 824.411 1267.17C824.411 1268.8 825.226 1270.05 826.855 1270.93C828.484 1271.74 831.016 1272.59 834.449 1273.46C837.94 1274.33 840.82 1275.23 843.09 1276.16C845.359 1277.09 847.309 1278.55 848.938 1280.53C850.625 1282.45 851.498 1285.01 851.556 1288.21C851.556 1291 850.771 1293.5 849.2 1295.72C847.687 1297.93 845.476 1299.67 842.566 1300.95C839.715 1302.17 836.369 1302.79 832.528 1302.79Z" fill="#929292"/>
</svg>
